<svg width="76" height="76" viewBox="0 0 76 76" fill="none" xmlns="http://www.w3.org/2000/svg">
<path fill-rule="evenodd" clip-rule="evenodd" d="M38 76C58.9868 76 76 58.9868 76 38C76 17.0132 58.9868 0 38 0C17.0132 0 0 17.0132 0 38C0 58.9868 17.0132 76 38 76ZM18 49.9025V24.9025C18 23.4025 20.5 22.4025 22 23.4025C23.5 24.4025 38.5 35.4025 38.5 35.4025C38.5 35.4025 53.5 24.4025 55 23.4025C56.5 22.4025 59 24.4025 59 25.9025V50.9025C59 51.9025 58 52.9025 57 52.9025H54V30.4025L38.5 41.9025L23 30.4025V52.9025H20C19 52.9025 18 50.9025 18 49.9025Z" fill="#0F70B7"/>
</svg>
