<svg width="148" height="147" viewBox="0 0 148 147" fill="none" xmlns="http://www.w3.org/2000/svg">
<path d="M144.283 66.9768L80.0806 2.77434C79.2015 1.8948 78.1577 1.19708 77.0089 0.721046C75.8601 0.245015 74.6287 0 73.3851 0C72.1416 0 70.9102 0.245015 69.7614 0.721046C68.6125 1.19708 67.5687 1.8948 66.6896 2.77434L53.3629 16.101L70.274 33.0121C74.2077 31.6335 78.7112 32.5756 81.8453 35.7096C83.3372 37.2042 84.3787 39.0883 84.8508 41.1466C85.3229 43.2049 85.2066 45.3545 84.5152 47.3498L100.815 63.6497C104.758 62.2895 109.307 63.1672 112.455 66.3243C113.502 67.371 114.332 68.6136 114.898 69.9811C115.464 71.3486 115.755 72.8142 115.755 74.2943C115.755 75.7744 115.463 77.24 114.897 78.6073C114.33 79.9747 113.5 81.217 112.453 82.2635C111.406 83.3099 110.164 84.1399 108.796 84.7061C107.429 85.2723 105.963 85.5636 104.483 85.5634C103.003 85.5632 101.537 85.2715 100.17 84.7049C98.8026 84.1383 97.5602 83.3079 96.5138 82.2611C93.2051 78.9525 92.3871 74.0813 94.0599 70.0052L78.8583 54.8036V94.8066C79.9618 95.3527 80.9703 96.0727 81.8453 96.9389C82.8917 97.9853 83.7218 99.2276 84.2881 100.595C84.8544 101.962 85.1459 103.427 85.1459 104.907C85.1459 106.387 84.8544 107.853 84.2881 109.22C83.7218 110.587 82.8917 111.829 81.8453 112.876C80.7988 113.922 79.5565 114.752 78.1893 115.319C76.8221 115.885 75.3567 116.176 73.8768 116.176C72.397 116.176 70.9316 115.885 69.5643 115.319C68.1971 114.752 66.9548 113.922 65.9084 112.876C64.8607 111.83 64.0296 110.588 63.4625 109.221C62.8954 107.853 62.6035 106.388 62.6035 104.907C62.6035 103.427 62.8954 101.961 63.4625 100.594C64.0296 99.2267 64.8607 97.9846 65.9084 96.9389C66.9975 95.8544 68.2061 95.0318 69.5985 94.4803V54.1051C68.2566 53.5536 66.9975 52.7402 65.9084 51.6465C64.3261 50.0661 63.2502 48.0503 62.8181 45.8561C62.386 43.6618 62.6171 41.3886 63.482 39.3262L46.8007 22.6541L2.77664 66.6322C1.89641 67.5114 1.19811 68.5554 0.721668 69.7047C0.24523 70.854 0 72.0859 0 73.33C0 74.5741 0.24523 75.806 0.721668 76.9552C1.19811 78.1045 1.89641 79.1486 2.77664 80.0278L66.9837 144.226C67.8628 145.105 68.9066 145.803 70.0555 146.279C71.2043 146.755 72.4357 147 73.6792 147C74.9228 147 76.1542 146.755 77.303 146.279C78.4518 145.803 79.4956 145.105 80.3747 144.226L144.283 80.4184C145.163 79.5392 145.862 78.4951 146.338 77.3459C146.815 76.1966 147.06 74.9647 147.06 73.7206C147.06 72.4765 146.815 71.2446 146.338 70.0953C145.862 68.9461 145.163 67.902 144.283 67.0228" fill="#0F70B7"/>
</svg>
