<svg width="76" height="76" viewBox="0 0 76 76" fill="none" xmlns="http://www.w3.org/2000/svg">
<path fill-rule="evenodd" clip-rule="evenodd" d="M38 76C58.9868 76 76 58.9868 76 38C76 17.0132 58.9868 0 38 0C17.0132 0 0 17.0132 0 38C0 58.9868 17.0132 76 38 76ZM37.4789 28.5697C37.8128 28.5355 38.1516 28.518 38.4941 28.518V28.5179C38.8332 28.5178 39.172 28.5351 39.5092 28.5695L40.4959 28.7209L41.4489 28.967L42.3632 29.3027L43.2335 29.723L44.055 30.2228L44.8225 30.7969L45.5308 31.4402L46.1748 32.1478L46.7495 32.9144L47.2499 33.7351L47.6705 34.6045L48.0067 35.518C48.104 35.8294 48.1864 36.1457 48.253 36.4702C48.3201 36.796 48.3708 37.1249 48.4046 37.4558C48.4388 37.7894 48.4563 38.1278 48.4563 38.47C48.4563 38.8122 48.4388 39.1507 48.4046 39.4842L48.253 40.4701C48.1864 40.7934 48.104 41.1111 48.0067 41.4223L47.6705 42.3358L47.2499 43.2053L46.7495 44.0258L46.1748 44.7925L45.5308 45.5001L44.8225 46.1435L44.055 46.7175L43.2335 47.2173L42.3632 47.6376L41.4489 47.9733L40.4959 48.2194C40.1697 48.2865 39.8404 48.3371 39.5092 48.3709C39.1755 48.405 38.8367 48.4225 38.4941 48.4225C38.1551 48.4225 37.8162 48.4053 37.4789 48.3709C37.1477 48.3371 36.8184 48.2865 36.4923 48.2194L35.5394 47.9733L34.6251 47.6376L33.7547 47.2173L32.9333 46.7175L32.1658 46.1435L31.4576 45.5001L30.8136 44.7925L30.2389 44.0258L29.7385 43.2053L29.3179 42.3358C29.1914 42.0383 29.0791 41.7336 28.9817 41.4223C28.8844 41.1111 28.802 40.7946 28.7354 40.4701C28.6683 40.1443 28.6177 39.8153 28.5838 39.4844C28.5497 39.1508 28.5322 38.8124 28.5322 38.4702C28.5322 38.128 28.5495 37.7895 28.5838 37.456C28.6181 37.1224 28.6688 36.7935 28.7354 36.4703C28.802 36.1471 28.8844 35.8294 28.9817 35.5181C29.0791 35.2069 29.1915 34.902 29.3179 34.6046L29.7385 33.7352L30.2389 32.9145L30.8136 32.1479L31.4576 31.4403L32.1658 30.797L32.9333 30.2229L33.7547 29.7231L34.6251 29.3028L35.5394 28.9671C35.8509 28.8699 36.1687 28.7875 36.4923 28.721C36.8159 28.6545 37.1451 28.6038 37.4789 28.5697ZM39.1643 31.9865C38.9442 31.9643 38.7206 31.9531 38.4941 31.9531L38.4943 31.9532C38.2704 31.9532 38.0466 31.9644 37.8239 31.9867C37.6049 32.0088 37.388 32.0417 37.1749 32.0849L36.548 32.2446C36.3444 32.3074 36.144 32.3802 35.9476 32.4626L35.3769 32.7359L34.8403 33.061L34.3386 33.435L33.8761 33.8546L33.4562 34.3166L33.0818 34.8178L32.7563 35.3551L32.483 35.9255L32.2646 36.5252C32.201 36.7312 32.1476 36.9403 32.1047 37.1516C32.0614 37.3644 32.0286 37.5811 32.0065 37.8011C31.9842 38.0237 31.973 38.2472 31.9731 38.4708C31.973 38.6945 31.9842 38.918 32.0065 39.1406L32.1047 39.7901L32.2645 40.4166L32.4829 41.0164L32.7562 41.5867L33.0816 42.1239L33.456 42.6252L33.876 43.0872L34.3385 43.5068L34.8401 43.8808L35.3768 44.2059L35.9474 44.4792L36.5477 44.6972C36.7525 44.7603 36.9617 44.8138 37.1747 44.8569L37.8236 44.955C38.0464 44.9773 38.2701 44.9885 38.494 44.9885C38.7179 44.9885 38.9416 44.9773 39.1643 44.955L39.8132 44.8569L40.4401 44.6972L41.0403 44.4792L41.611 44.2059L42.1476 43.8808L42.6493 43.5068L43.1118 43.0872L43.5317 42.6252L43.9061 42.1239L44.2316 41.5867L44.5049 41.0164L44.7233 40.4166C44.7863 40.2119 44.8397 40.0029 44.883 39.7901C44.9263 39.5773 44.959 39.3607 44.9812 39.1406C45.0035 38.9204 45.0147 38.697 45.0147 38.4708L44.9812 37.8011C44.9579 37.5811 44.9261 37.3645 44.883 37.1516C44.84 36.9387 44.7867 36.7296 44.7233 36.5251C44.6599 36.3206 44.587 36.1205 44.5049 35.9253L44.2316 35.355L43.9061 34.8177L43.5317 34.3165L43.1118 33.8545L42.6493 33.4349L42.1476 33.0609L41.611 32.7358L41.0403 32.4625L40.4401 32.2445L39.8132 32.0848L39.1643 31.9865ZM48.8601 25.6869C48.781 25.6869 48.702 25.6909 48.6233 25.6989C48.5446 25.7068 48.4663 25.7187 48.3888 25.7346C48.3113 25.7504 48.2346 25.7701 48.159 25.7936C48.0835 25.8171 48.0091 25.8444 47.9363 25.8755C47.8634 25.9065 47.7922 25.9412 47.7228 25.9794C47.6534 26.0175 47.5859 26.0592 47.5206 26.1041C47.4553 26.149 47.3923 26.1973 47.3318 26.2486C47.2713 26.2999 47.2134 26.3541 47.1583 26.4112C47.1032 26.4683 47.051 26.5282 47.0018 26.5905C46.9527 26.6529 46.9066 26.7177 46.8639 26.7847C46.8212 26.8517 46.7819 26.9207 46.746 26.9916C46.7101 27.0626 46.6777 27.1353 46.649 27.2095C46.6204 27.2837 46.5954 27.3593 46.5743 27.436C46.5531 27.5127 46.5358 27.5904 46.5224 27.6689C46.5089 27.7473 46.4994 27.8264 46.4938 27.9057C46.4898 27.962 46.4878 28.0183 46.4878 28.0747C46.4878 28.1544 46.4917 28.234 46.4996 28.3132C46.5075 28.3924 46.5194 28.4712 46.5351 28.5492C46.5508 28.6272 46.5704 28.7044 46.5937 28.7804C46.6171 28.8565 46.6443 28.9314 46.6751 29.0047C46.7059 29.0781 46.7404 29.1498 46.7783 29.2197C46.8162 29.2896 46.8576 29.3575 46.9022 29.4233C46.9469 29.4889 46.9948 29.5523 47.0457 29.6132C47.0967 29.6741 47.1506 29.7324 47.2074 29.7879C47.2641 29.8434 47.3236 29.8959 47.3856 29.9454C47.4475 29.9949 47.5119 30.0413 47.5785 30.0843C47.6451 30.1273 47.7138 30.167 47.7843 30.2031C47.8548 30.2392 47.927 30.2718 48.0007 30.3007C48.0744 30.3295 48.1495 30.3547 48.2257 30.3759C48.3019 30.3972 48.3791 30.4146 48.4571 30.4281C48.535 30.4417 48.6135 30.4513 48.6924 30.4569C48.7483 30.4609 48.8043 30.4629 48.8603 30.4629C48.9394 30.463 49.0184 30.459 49.0971 30.4511C49.1758 30.4431 49.2541 30.4312 49.3316 30.4154C49.4091 30.3996 49.4858 30.3799 49.5614 30.3564C49.6369 30.3328 49.7113 30.3055 49.7841 30.2745C49.857 30.2435 49.9282 30.2088 49.9977 30.1707C50.0671 30.1325 50.1345 30.0908 50.1998 30.0459C50.2651 30.0009 50.3281 29.9527 50.3886 29.9015C50.4491 29.8502 50.507 29.7959 50.5621 29.7387C50.6172 29.6816 50.6694 29.6218 50.7186 29.5594C50.7678 29.497 50.8138 29.4322 50.8565 29.3652C50.8992 29.2982 50.9386 29.2291 50.9744 29.1582C51.0103 29.0872 51.0427 29.0145 51.0714 28.9403C51.1 28.8661 51.125 28.7905 51.1461 28.7138C51.1673 28.6371 51.1846 28.5594 51.1981 28.4809C51.2115 28.4025 51.221 28.3235 51.2266 28.2441C51.2306 28.1878 51.2326 28.1315 51.2326 28.0751C51.2326 27.9955 51.2287 27.9159 51.2208 27.8367C51.2129 27.7575 51.201 27.6788 51.1853 27.6007C51.1696 27.5227 51.15 27.4456 51.1267 27.3695C51.1033 27.2934 51.0761 27.2186 51.0453 27.1452C51.0145 27.0719 50.98 27.0001 50.9421 26.9302C50.9042 26.8603 50.8628 26.7924 50.8182 26.7267C50.7735 26.661 50.7255 26.5975 50.6745 26.5366C50.6236 26.4757 50.5697 26.4174 50.5131 26.3619C50.4563 26.3064 50.3968 26.2539 50.3349 26.2044C50.2729 26.1549 50.2085 26.1086 50.1419 26.0656C50.0753 26.0226 50.0067 25.983 49.9361 25.9468C49.8657 25.9107 49.7934 25.8781 49.7197 25.8492C49.646 25.8204 49.5709 25.7953 49.4947 25.774C49.4185 25.7527 49.3413 25.7352 49.2634 25.7217C49.1854 25.7082 49.1069 25.6986 49.028 25.693C48.9721 25.689 48.9161 25.687 48.8601 25.687V25.6869ZM33.686 19.0153C34.5546 19.0031 35.5215 18.9986 36.605 19.0004L36.6062 19.0006L40.2238 19.0228L43.0488 19.0561L45.2809 19.1061C45.9377 19.126 46.5129 19.1507 47.0243 19.1822C47.5357 19.2136 47.9828 19.2514 48.3833 19.2982C48.7838 19.345 49.1376 19.4001 49.462 19.4661C49.7865 19.5321 50.0814 19.6086 50.3647 19.6978C50.6463 19.7873 50.9236 19.89 51.1956 20.0057C51.4722 20.1223 51.754 20.2537 52.0588 20.4018C52.2424 20.491 52.4234 20.5853 52.6016 20.6848C52.7768 20.7827 52.949 20.8858 53.118 20.9938C53.2848 21.1004 53.4483 21.212 53.6082 21.3285C53.7665 21.4439 53.9212 21.5641 54.072 21.6891C54.2222 21.8136 54.3679 21.9424 54.5092 22.0754C54.6505 22.2084 54.7876 22.3459 54.9202 22.4875C55.053 22.6294 55.1813 22.7754 55.3048 22.9253C55.429 23.0761 55.5485 23.2307 55.663 23.3889C55.7782 23.5477 55.8887 23.7108 55.9949 23.8781C56.1011 24.0455 56.2027 24.2171 56.3002 24.393C56.3976 24.569 56.4905 24.7491 56.5791 24.9336C56.6677 25.1182 56.7528 25.3068 56.8314 25.4998C56.9101 25.6929 56.9852 25.8902 57.0561 26.0917C57.1278 26.2958 57.1943 26.5016 57.2555 26.7091C57.3183 26.922 57.3759 27.1364 57.4283 27.3522C57.4822 27.5739 57.531 27.7968 57.5746 28.0207C57.614 28.2234 57.6512 28.5231 57.6857 28.9037L57.7805 30.2715L57.8566 32.0259L57.9124 34.0691L57.9541 38.631L57.9361 40.9537L57.8895 43.1751L57.8241 45.1689L57.7479 46.7722C57.7192 47.2498 57.6865 47.6748 57.6481 48.0594C57.6097 48.4441 57.5654 48.7885 57.5129 49.105C57.4605 49.4215 57.3999 49.71 57.3295 49.9833C57.2611 50.2489 57.1799 50.5111 57.086 50.7689C56.9908 51.0287 56.8853 51.2846 56.7698 51.5361C56.6509 51.7971 56.5181 52.0675 56.3688 52.3595C56.2696 52.5536 56.1723 52.7285 56.0666 52.897C55.9582 53.0696 55.8408 53.2363 55.7146 53.3964C55.5824 53.5652 55.4315 53.7402 55.2524 53.9348C55.0733 54.1294 54.8657 54.3433 54.6194 54.5894C54.3393 54.8696 54.113 55.0913 53.9133 55.2752C53.7137 55.4592 53.5405 55.6052 53.3662 55.7335C53.1897 55.8629 53.0048 55.9806 52.8129 56.0859C52.6089 56.1991 52.3765 56.315 52.0878 56.454C51.8999 56.5446 51.7126 56.63 51.525 56.7099C51.3388 56.7894 51.1506 56.8643 50.9607 56.9346C50.7719 57.0045 50.5819 57.0697 50.39 57.1299C50.1981 57.1902 50.0041 57.247 49.8075 57.2969C49.6088 57.3485 49.4089 57.3952 49.2079 57.4371C49.0047 57.4795 48.7977 57.5177 48.5861 57.5519C48.3744 57.5861 48.157 57.6161 47.9367 57.6425C47.7163 57.6688 47.4879 57.6913 47.2545 57.7102L46.1672 57.7661L44.4982 57.8131L40.1086 57.8746L35.4731 57.8839C34.0412 57.8773 32.7995 57.86 31.9792 57.8303C31.4482 57.8111 30.954 57.7871 30.4916 57.7572C30.0293 57.7272 29.599 57.6914 29.1957 57.6481C28.7923 57.6048 28.4148 57.5545 28.0616 57.4958C27.7085 57.4372 27.3748 57.3699 27.0595 57.2933C26.7443 57.2167 26.446 57.1303 26.1598 57.0332C25.8735 56.9361 25.5994 56.8282 25.3321 56.7083C25.0648 56.5883 24.8047 56.4564 24.5469 56.311C24.2891 56.1656 24.0331 56.0073 23.7744 55.8343C23.4957 55.6483 23.2262 55.4488 22.967 55.2365C22.7108 55.0266 22.4677 54.8057 22.2372 54.5736C22.007 54.342 21.7891 54.0985 21.5841 53.8443C21.379 53.5901 21.1868 53.3246 21.0071 53.0476C20.8274 52.7707 20.6602 52.4824 20.5054 52.1824C20.3507 51.8824 20.2084 51.5707 20.0784 51.2475C19.9461 50.9175 19.8282 50.5819 19.7252 50.2416C19.6176 49.8862 19.5241 49.5267 19.4451 49.1639C19.4062 48.9854 19.37 48.7793 19.3363 48.5436C19.2993 48.2783 19.2685 48.0122 19.2439 47.7455L19.167 46.7558L19.1055 45.5615L19.0256 42.5041L19 38.4685L19.0087 35.6935L19.0389 33.3976L19.0951 31.5142C19.1188 30.9478 19.1478 30.4388 19.1827 29.9764C19.2136 29.5557 19.255 29.1359 19.3067 28.7173C19.3548 28.3354 19.4095 27.9901 19.4721 27.669C19.5347 27.3479 19.605 27.051 19.684 26.7672C19.7614 26.4896 19.8493 26.2149 19.9474 25.9438C20.0797 25.5772 20.2123 25.2487 20.3543 24.9437C20.4237 24.7944 20.4975 24.6472 20.5755 24.5022C20.6524 24.3597 20.7328 24.2212 20.8176 24.0851C20.9034 23.9479 20.9934 23.8134 21.0876 23.6818C21.1828 23.5483 21.2839 23.4155 21.3918 23.2812C21.6077 23.0125 21.8509 22.7387 22.1309 22.4451C22.3536 22.2101 22.568 21.9998 22.7779 21.8086C22.9787 21.6249 23.1881 21.4507 23.4053 21.2867C23.6162 21.1282 23.8316 20.9827 24.059 20.845C24.2863 20.7072 24.5257 20.577 24.7848 20.4485C25.1215 20.2815 25.4484 20.1325 25.7836 19.9997C25.9512 19.9333 26.1209 19.8712 26.2949 19.8125C26.4724 19.7529 26.6516 19.6981 26.8322 19.6483C27.0168 19.5974 27.2083 19.55 27.4087 19.506C27.6091 19.4621 27.8182 19.4217 28.0384 19.3842C28.2698 19.3453 28.5019 19.3111 28.7347 19.2818C28.9793 19.2507 29.2373 19.2225 29.5109 19.1973C30.058 19.1467 30.6675 19.1077 31.3574 19.0777L33.686 19.0153ZM43.7006 22.4622L38.4838 22.4325L38.4847 22.4314L33.276 22.4632L31.3179 22.5019C30.7799 22.5172 30.3713 22.5354 30.1342 22.5559C29.7943 22.5854 29.4763 22.6193 29.1774 22.6586C28.8785 22.6979 28.5986 22.743 28.3351 22.7946C28.0844 22.8432 27.8359 22.902 27.59 22.971C27.356 23.0384 27.1352 23.1126 26.9249 23.1956C26.7146 23.2786 26.5147 23.3708 26.3224 23.4729C26.1301 23.575 25.9454 23.686 25.7653 23.8108C25.5821 23.9369 25.4055 24.0722 25.2361 24.2163C25.0568 24.369 24.8838 24.5291 24.7177 24.6961C24.5752 24.8388 24.4438 24.9772 24.3221 25.1142C24.2005 25.2512 24.0887 25.3864 23.9848 25.5233C23.881 25.6602 23.7858 25.7978 23.6975 25.9397C23.6093 26.0816 23.5281 26.2274 23.4524 26.3796C23.375 26.5362 23.3046 26.6961 23.2414 26.859C23.1759 27.0271 23.1146 27.2045 23.0565 27.394C22.9953 27.5947 22.9396 27.7971 22.8896 28.0008C22.8361 28.2169 22.7843 28.4476 22.7329 28.6956C22.7173 28.771 22.7021 28.8965 22.6873 29.066L22.6449 29.7006L22.57 31.6204L22.4718 37.0695L22.4593 42.772L22.4933 45.0089C22.5095 45.6379 22.5307 46.1365 22.5574 46.4566C22.5936 46.8911 22.639 47.2999 22.6954 47.6856C22.7518 48.0712 22.8185 48.4331 22.8966 48.7738C22.9747 49.1145 23.0646 49.4339 23.1669 49.7341C23.2181 49.8841 23.2725 50.0293 23.3299 50.1701C23.3864 50.3084 23.4474 50.4447 23.5127 50.5791C23.577 50.7108 23.6446 50.8386 23.7158 50.9622C23.7862 51.0846 23.861 51.2045 23.94 51.3216C24.0179 51.4369 24.1 51.5493 24.1862 51.6585C24.2721 51.7674 24.3616 51.8724 24.4552 51.9745C24.5491 52.0769 24.6467 52.1759 24.7477 52.2713C24.8494 52.3671 24.9549 52.4602 25.0647 52.5506C25.1745 52.6409 25.2886 52.7272 25.4066 52.8136C25.5247 52.9001 25.6473 52.9817 25.7743 53.0624C25.9425 53.1693 26.1088 53.2674 26.2769 53.3577C26.445 53.4481 26.6148 53.5308 26.7895 53.6063C26.9642 53.6818 27.1438 53.7505 27.3316 53.8129C27.5264 53.8773 27.7237 53.9338 27.9231 53.9823C28.1418 54.0355 28.3622 54.0813 28.5839 54.1196C28.8179 54.1606 29.0666 54.1969 29.3337 54.2294C29.6007 54.262 29.8858 54.2907 30.1923 54.3165L31.1794 54.3859L32.5181 54.4276L34.5797 54.4496L39.8293 54.4413L44.8448 54.3762L46.6139 54.327C47.0782 54.3091 47.4023 54.2897 47.5433 54.2691C47.9101 54.2163 48.2745 54.1481 48.6355 54.0647C48.9819 53.9842 49.311 53.8909 49.623 53.7845C49.7764 53.7324 49.9283 53.676 50.0785 53.6155C50.2238 53.5568 50.3674 53.4938 50.5089 53.4265C50.6481 53.3602 50.7834 53.2906 50.9145 53.2177C51.0457 53.1448 51.1727 53.0685 51.2959 52.9889C51.4191 52.9092 51.5382 52.8261 51.6534 52.7395C51.7686 52.6529 51.8799 52.563 51.9873 52.4695C52.0946 52.3759 52.1982 52.2789 52.298 52.1784C52.3977 52.078 52.4938 51.9739 52.5859 51.8664C52.6783 51.7585 52.7668 51.6473 52.8512 51.533C52.9361 51.4183 53.0172 51.2999 53.0946 51.1779C53.1727 51.0549 53.2466 50.9292 53.3162 50.8011C53.3866 50.6717 53.4531 50.5387 53.5164 50.4021C53.5875 50.249 53.6551 50.0944 53.7192 49.9382C53.7798 49.7904 53.8359 49.6407 53.8875 49.4895C53.9387 49.3389 53.9849 49.1867 54.0259 49.0331C54.0687 48.8721 54.1064 48.7098 54.1389 48.5464C54.1744 48.3673 54.2051 48.1873 54.2311 48.0065C54.2588 47.8152 54.2837 47.6113 54.3068 47.3909C54.3528 46.9501 54.3912 46.4437 54.4276 45.8413L54.4802 44.5548L54.5184 42.786L54.5502 38.4447L54.5222 34.0993L54.4857 32.3254C54.4711 31.8051 54.4538 31.3646 54.4341 31.0308C54.4094 30.6146 54.3795 30.2256 54.3433 29.8608C54.3071 29.496 54.2644 29.1553 54.2145 28.8359C54.1681 28.5345 54.1104 28.235 54.0415 27.9379C53.9757 27.6578 53.9015 27.3956 53.8181 27.1489C53.7348 26.9021 53.6419 26.67 53.5386 26.4504C53.4375 26.2349 53.3232 26.0259 53.1964 25.8245C53.071 25.626 52.9338 25.4352 52.7854 25.2531C52.6366 25.0699 52.4751 24.8923 52.3 24.718C52.1341 24.5528 51.9643 24.3983 51.7891 24.2541C51.6139 24.11 51.4334 23.9762 51.2462 23.852C51.0581 23.7273 50.8636 23.6125 50.6634 23.5082C50.4616 23.4031 50.252 23.3072 50.0327 23.2199C49.8134 23.1327 49.5849 23.0538 49.3457 22.9835C49.1065 22.9131 48.8565 22.8507 48.5944 22.7958C48.3216 22.7391 48.0469 22.6917 47.7708 22.6536C47.4832 22.6137 47.1824 22.5804 46.8667 22.5538C46.6242 22.5332 46.2106 22.5153 45.6686 22.5001L43.7006 22.4622Z" fill="#0F70B7"/>
</svg>
