<svg width="148" height="147" viewBox="0 0 148 147" fill="none" xmlns="http://www.w3.org/2000/svg">
<path fill-rule="evenodd" clip-rule="evenodd" d="M0 0H147.5V147H0V0ZM66.5 68.5H79.5V122.5C79.5 125.5 72 135.5 63.5 135.5H55.5C52 135.5 43.0838 130.057 39.5 123.5C39 122.5 50.5 116 50.5 116.5C50.5 125 66.5 125.5 66.5 119V68.5ZM121 84.5L132 77.5C132 77.5 120.5 66.5 109.5 67.5C98.5 68.5 91.5 75.5 91.5 87C91.5 98.5 103 103.5 103 103.5C112.279 106.712 121 109.5 121.5 113.5V119C119.991 121.476 118.743 122.516 115.5 123.5H109.5C104.404 122.176 102.204 119.955 98.5 115.5L88.5 122.5L97.5 132C100 134 106 135.5 108.5 135.5L119.5 135C128.666 131.641 132.798 129.03 135.5 121V112.5C134.135 106.892 132.315 104.3 127.5 100.5C123 97 105.5 92 105.5 86.5V83.5C106.457 80.9307 107.422 80.2028 109.5 79.5C109.5 79.5 112 79 115.5 79.5C119 80 119.5 82 121 84.5Z" fill="#0F70B7"/>
</svg>
