<svg width="130" height="147" viewBox="0 0 130 147" fill="none" xmlns="http://www.w3.org/2000/svg">
<path fill-rule="evenodd" clip-rule="evenodd" d="M0 0L11.802 131.928L65.3106 147L118.464 131.928L130 0H0ZM44.0158 40.0643H57.0158V94.0643C57.0158 97.0643 49.5158 107.064 41.0158 107.064H33.0158C29.5158 107.064 20.5996 101.622 17.0158 95.0643C16.5158 94.0643 28.0158 87.5643 28.0158 88.0643C28.0158 96.5643 44.0158 97.0643 44.0158 90.5643V40.0643ZM98.5158 56.0643L109.516 49.0643C109.516 49.0643 98.0158 38.0643 87.0158 39.0643C76.0158 40.0643 69.0158 47.0643 69.0158 58.5643C69.0158 70.0643 80.5158 75.0643 80.5158 75.0643C89.7952 78.2766 98.5158 81.0643 99.0158 85.0643V90.5643C97.5073 93.0399 96.2584 94.0804 93.0158 95.0643H87.0158C81.92 93.7407 79.7201 91.5195 76.0158 87.0643L66.0158 94.0643L75.0158 103.564C77.5158 105.564 83.5158 107.064 86.0158 107.064L97.0158 106.564C106.182 103.206 110.313 100.594 113.016 92.5643V84.0643C111.651 78.4559 109.831 75.8638 105.016 72.0643C100.516 68.5643 83.0158 63.5643 83.0158 58.0643V55.0643C83.9731 52.495 84.9376 51.767 87.0158 51.0643C87.0158 51.0643 89.5158 50.5643 93.0158 51.0643C96.5158 51.5643 97.0158 53.5643 98.5158 56.0643Z" fill="#0F70B7"/>
</svg>
