<svg width="76" height="76" viewBox="0 0 76 76" fill="none" xmlns="http://www.w3.org/2000/svg">
<path fill-rule="evenodd" clip-rule="evenodd" d="M38 76C58.9868 76 76 58.9868 76 38C76 17.0132 58.9868 0 38 0C17.0132 0 0 17.0132 0 38C0 58.9868 17.0132 76 38 76ZM25.268 27.2H15.758V57.74H25.268V27.2ZM26.006 17.5C26.006 14.466 23.54 12 20.506 12C19.7832 11.9992 19.0674 12.1409 18.3994 12.4169C17.7314 12.693 17.1244 13.098 16.613 13.6088C16.1017 14.1196 15.696 14.7262 15.4192 15.3939C15.1425 16.0615 15 16.7772 15 17.5C15.0037 18.9595 15.5853 20.3581 16.6175 21.39C17.6497 22.4218 19.0485 23.0028 20.508 23.006C23.54 23.006 26.006 20.534 26.006 17.5ZM31.22 27.2H31.206L31.22 27.194V27.2ZM31.22 27.2V57.734H40.704V42.626C40.704 38.646 41.464 34.786 46.404 34.786C51.272 34.786 51.336 39.346 51.336 42.886V57.742H60.822V40.99C60.822 32.768 59.048 26.442 49.436 26.442C44.8 26.442 41.704 28.974 40.436 31.374H40.31V27.2H31.22Z" fill="#0F70B7"/>
</svg>
