<svg width="217" height="61" viewBox="0 0 217 61" fill="none" xmlns="http://www.w3.org/2000/svg">
<path d="M198.712 21.6458C198.186 21.6458 197.675 21.7544 197.222 22.0105L182.9 30.2811C181.974 30.8149 181.41 31.8237 181.41 32.8963V49.408C181.41 50.4802 181.974 51.4873 182.9 52.0227L186.64 54.1781C188.458 55.074 189.128 55.0597 189.955 55.0597C192.645 55.0597 194.181 53.4271 194.181 50.5896V34.2998C194.181 34.0695 193.982 33.9047 193.756 33.9047H191.962C191.732 33.9047 191.536 34.0737 191.536 34.2998V50.5981C191.536 51.8558 190.226 53.1211 188.1 52.0578L184.212 49.7774C184.075 49.7026 183.969 49.5661 183.969 49.4126V32.901C183.969 32.7446 184.073 32.5848 184.212 32.5058L198.504 24.2647C198.638 24.1878 198.797 24.1878 198.929 24.2647L213.221 32.5058C213.357 32.5874 213.464 32.7395 213.464 32.901V49.4126C213.464 49.5703 213.385 49.7317 213.251 49.8078L198.93 58.0488C198.803 58.122 198.634 58.122 198.504 58.0488L194.825 55.8597C194.715 55.7954 194.566 55.8005 194.46 55.8597C193.445 56.4353 193.254 56.5021 192.301 56.8326C192.067 56.9141 191.71 57.0413 192.423 57.4411L197.227 60.2727C197.685 60.5372 198.194 60.6678 198.718 60.6678C199.248 60.6678 199.75 60.541 200.208 60.2727L214.529 52.0316C215.456 51.4923 216.02 50.4891 216.02 49.4169V32.9052C216.02 31.8326 215.456 30.8259 214.529 30.29L200.208 22.0194C199.759 21.7633 199.244 21.6547 198.718 21.6547L198.712 21.6458ZM202.544 33.4444C198.465 33.4444 196.037 35.1801 196.037 38.0662C196.037 41.1936 198.447 42.0574 202.361 42.4445C207.044 42.9031 207.409 43.5907 207.409 44.5124C207.409 46.1112 206.135 46.7928 203.122 46.7928C199.337 46.7928 198.505 45.8479 198.226 43.9613C198.193 43.7593 198.038 43.5966 197.831 43.5966H195.971C195.859 43.599 195.753 43.6447 195.673 43.724C195.594 43.8032 195.548 43.9101 195.546 44.0221C195.546 46.4323 196.857 49.2825 203.118 49.2825C207.649 49.2825 210.263 47.5075 210.263 44.3869C210.263 41.3018 208.152 40.4679 203.756 39.886C199.319 39.2943 198.891 39.0112 198.891 37.9703C198.891 37.1115 199.25 35.9628 202.54 35.9628C205.478 35.9628 206.564 36.5967 207.01 38.578C207.049 38.7639 207.213 38.9161 207.405 38.9161H209.265C209.379 38.9161 209.489 38.8459 209.569 38.7639C209.647 38.6765 209.701 38.578 209.691 38.4597C209.403 35.0474 207.128 33.4423 202.545 33.4423L202.544 33.4444Z" fill="#4EADF2"/>
<path d="M114.514 0.000560503C114.354 0.000849337 114.197 0.0427971 114.058 0.122275C113.92 0.203109 113.805 0.318539 113.725 0.457192C113.645 0.595845 113.603 0.752938 113.602 0.912993V24.1747C113.602 24.403 113.495 24.6075 113.298 24.722C113.201 24.7785 113.091 24.8083 112.978 24.8083C112.866 24.8083 112.756 24.7785 112.659 24.722L108.858 22.5329C108.581 22.3725 108.266 22.288 107.946 22.288C107.625 22.288 107.311 22.3725 107.034 22.5329L91.8607 31.2899C91.2936 31.6171 90.9479 32.2468 90.9479 32.9014V50.416C90.9474 50.7365 91.0315 51.0514 91.1917 51.329C91.3519 51.6066 91.5826 51.837 91.8603 51.997L107.034 60.7545C107.311 60.9153 107.625 61 107.946 61C108.266 61 108.581 60.9153 108.858 60.7545L124.031 51.997C124.309 51.837 124.54 51.6066 124.7 51.329C124.86 51.0514 124.944 50.7365 124.944 50.416V6.75104C124.944 6.08669 124.581 5.46332 124.001 5.1396L114.97 0.0914234C114.828 0.0123938 114.671 -0.00112997 114.514 0.000560503ZM16.906 21.8634C16.6165 21.8753 16.3448 21.9256 16.0849 22.0764L0.912018 30.8335C0.634067 30.9932 0.403299 31.2236 0.243126 31.5012C0.0829541 31.7789 -0.000922179 32.094 7.64747e-06 32.4145L0.0308588 55.9201C0.0308588 56.2472 0.199906 56.5507 0.487286 56.7104C0.769173 56.8795 1.11868 56.8795 1.3993 56.7104L10.3998 51.541C10.9703 51.2029 11.3422 50.6129 11.3422 49.9604V38.9829C11.3422 38.3278 11.6867 37.7277 12.2551 37.4023L16.0865 35.1827C16.3634 35.0217 16.6783 34.9376 16.9986 34.9393C17.319 34.9374 17.6341 35.0214 17.911 35.1827L21.7408 37.401C22.3083 37.7264 22.6528 38.3274 22.6528 38.9816V49.9587C22.6528 50.6121 23.0331 51.2054 23.5952 51.5393L32.5957 56.7087C32.8789 56.8778 33.2275 56.8778 33.5077 56.7087C33.7866 56.5481 33.9641 56.2451 33.9641 55.9184L33.9946 32.4137C33.9964 32.093 33.9129 31.7775 33.7526 31.4997C33.5923 31.2219 33.3611 30.9917 33.0826 30.8327L17.9097 22.076C17.6532 21.9256 17.3802 21.8749 17.0886 21.863L16.906 21.8634ZM153.253 22.0764C152.932 22.0756 152.618 22.1596 152.34 22.3199L137.167 31.0774C136.601 31.4049 136.254 32.0037 136.254 32.658V50.1725C136.254 50.831 136.625 51.4277 137.197 51.7531L152.248 60.3323C152.804 60.6492 153.482 60.6733 154.042 60.3619L163.164 55.2837C163.454 55.1231 163.65 54.823 163.65 54.4934C163.651 54.1637 163.48 53.8671 163.194 53.7031L147.929 44.9456C147.643 44.7825 147.443 44.4524 147.443 44.1244V38.6477C147.443 38.3206 147.646 38.0206 147.929 37.8574L152.673 35.1206C152.955 34.9574 153.301 34.9574 153.585 35.1206L158.331 37.8574C158.47 37.9373 158.585 38.0524 158.665 38.1912C158.745 38.33 158.787 38.4875 158.787 38.6477V42.9656C158.787 43.1259 158.828 43.2834 158.909 43.4222C158.989 43.561 159.104 43.6761 159.243 43.7559C159.527 43.9199 159.872 43.9207 160.156 43.7559L169.247 38.466C169.811 38.1381 170.16 37.5375 170.16 36.8854V32.6592C170.16 32.3388 170.076 32.024 169.916 31.7465C169.755 31.469 169.525 31.2385 169.248 31.0782L154.166 22.3207C153.888 22.1602 153.573 22.0754 153.253 22.0764ZM107.885 35.1523C107.97 35.1519 108.053 35.1726 108.128 35.2127L113.328 38.223C113.469 38.3046 113.571 38.4554 113.571 38.6181V44.6388C113.571 44.8023 113.47 44.9528 113.328 45.0339L108.128 48.0442C107.987 48.1245 107.814 48.1245 107.672 48.0442L102.472 45.0339C102.331 44.9523 102.229 44.8015 102.229 44.6388V38.6173C102.229 38.4542 102.331 38.3046 102.472 38.2222L107.672 35.2123C107.743 35.1713 107.805 35.1523 107.885 35.1523Z" fill="#0F70B7"/>
<path d="M62.4872 21.9848C62.1668 21.9842 61.8519 22.0682 61.5743 22.2282L46.401 30.9552C45.8339 31.2824 45.489 31.9125 45.489 32.5667V50.0813C45.4882 50.4017 45.5721 50.7167 45.7322 50.9943C45.8924 51.2719 46.1231 51.5022 46.401 51.6618L61.5743 60.4193C61.8514 60.5802 62.1661 60.6649 62.4865 60.6649C62.8069 60.6649 63.1216 60.5802 63.3987 60.4193L78.572 51.6618C78.8497 51.5019 79.0803 51.2715 79.2406 50.9939C79.4008 50.7163 79.4849 50.4013 79.4844 50.0808V32.5663C79.4844 31.9112 79.1396 31.2815 78.5716 30.9548L63.3983 22.2278C63.121 22.067 62.806 21.983 62.4855 21.9843L62.4872 21.9848ZM153.223 37.6144C153.163 37.6144 153.096 37.6144 153.041 37.644L150.122 39.3472C150.067 39.3774 150.022 39.4214 149.99 39.4747C149.958 39.528 149.94 39.5888 149.939 39.651V42.9961C149.939 43.122 150.012 43.237 150.122 43.3003L153.041 44.9726C153.091 45.0037 153.149 45.0202 153.208 45.0202C153.267 45.0202 153.324 45.0037 153.375 44.9726L156.294 43.3003C156.402 43.2382 156.476 43.122 156.476 42.9961V39.651C156.476 39.5251 156.402 39.4101 156.294 39.3468L153.375 37.6436C153.32 37.6115 153.284 37.6144 153.223 37.6144Z" fill="#4EADF2"/>
</svg>
