<svg width="112" height="107" viewBox="0 0 112 107" fill="none" xmlns="http://www.w3.org/2000/svg">
<path fill-rule="evenodd" clip-rule="evenodd" d="M22.655 106.436L14.2276 93.7041C18.4868 93.3283 22.3246 90.2422 22.3246 84.6042C22.3246 78.8672 18.2534 75.1956 12.5422 75.1956H0V106.412H3.8853V94.0088H10.1109L18.0674 106.412L22.655 106.436ZM12.0773 90.6161H3.88728V78.6812H12.0773C15.7766 78.6812 18.3028 81.1145 18.3028 84.6259C18.3028 88.1373 15.7746 90.62 12.0773 90.62V90.6161ZM37.1181 106.996C40.8174 106.996 43.858 105.779 46.1053 103.534L44.4198 101.239C42.6394 103.065 40.0202 104.094 37.4464 104.094C32.5799 104.094 29.5829 100.537 29.302 96.2798H47.6009V95.3896C47.6009 88.6042 43.5751 83.2668 36.7402 83.2668C30.2812 83.2668 25.6026 88.5567 25.6026 95.1087C25.6026 102.177 30.4236 106.978 37.1161 106.978L37.1181 106.996ZM44.1409 93.7022H29.3039C29.4919 90.2402 31.8757 86.165 36.6987 86.165C41.8481 86.165 44.0934 90.3312 44.1409 93.7022ZM70.9146 106.434V90.895C70.9146 85.4192 66.9383 83.2649 62.1628 83.2649C58.4635 83.2649 55.5633 84.4815 53.1301 87.0097L54.7681 89.443C56.78 87.2906 58.9818 86.3074 61.6959 86.3074C64.9719 86.3074 67.4072 88.0384 67.4072 91.081V95.1522C65.5812 93.0454 63.0075 92.0622 59.9175 92.0622C56.0797 92.0622 52.0045 94.4499 52.0045 99.5044C52.0045 104.418 56.0757 106.994 59.9175 106.994C62.96 106.994 65.5357 105.918 67.4072 103.859V106.43L70.9146 106.434ZM61.1816 104.468C57.9056 104.468 55.6108 102.41 55.6108 99.5538C55.6108 96.6517 57.9056 94.5924 61.1816 94.5924C63.6623 94.5924 66.0481 95.5281 67.4072 97.4015V101.661C66.0501 103.532 63.6623 104.47 61.1816 104.47V104.468ZM87.8881 106.996C92.0068 106.996 94.4401 105.311 96.173 103.065L93.8327 100.913C92.3352 102.925 90.4163 103.861 88.0958 103.861C83.2748 103.861 80.2817 100.116 80.2817 95.1087C80.2817 90.1017 83.2768 86.4044 88.0958 86.4044C90.4361 86.4044 92.355 87.2946 93.8327 89.352L96.173 87.1996C94.442 84.9523 92.0068 83.2688 87.8881 83.2688C81.1482 83.2688 76.608 88.4182 76.608 95.1107C76.608 101.851 81.1482 106.98 87.8881 106.98V106.996ZM106.8 106.996C108.858 106.996 110.124 106.387 111.014 105.546L109.985 102.925C109.516 103.439 108.6 103.861 107.597 103.861C106.054 103.861 105.303 102.644 105.303 100.958V86.9167H109.892V83.8287H105.303V77.6506H101.791V83.8287H98.0464V86.9187H101.791V101.71C101.791 105.081 103.477 107 106.8 107V106.996Z" fill="#0F70B7"/>
<path d="M54.6593 41.4162C58.4565 41.4162 61.5348 38.3379 61.5348 34.5406C61.5348 30.7434 58.4565 27.6651 54.6593 27.6651C50.862 27.6651 47.7837 30.7434 47.7837 34.5406C47.7837 38.3379 50.862 41.4162 54.6593 41.4162Z" fill="#0F70B7"/>
<path fill-rule="evenodd" clip-rule="evenodd" d="M54.6594 20.5612C63.8908 20.5612 72.4666 21.8858 78.9326 24.1118C86.7233 26.7939 91.5133 30.8594 91.5133 34.5406C91.5133 38.3768 86.4369 42.6957 78.0707 45.4677C71.7457 47.5632 63.4224 48.6572 54.6594 48.6572C45.675 48.6572 37.1673 47.6304 30.771 45.4446C22.6785 42.6786 17.8043 38.3037 17.8043 34.5406C17.8043 30.8893 22.3778 26.8552 30.059 24.1772C36.5492 21.9144 45.3366 20.5612 54.6582 20.5612H54.6594Z" stroke="#0F70B7" stroke-width="3.28929"/>
<path fill-rule="evenodd" clip-rule="evenodd" d="M42.4899 27.5912C47.1018 19.5944 52.5332 12.8272 57.6919 8.3379C63.9073 2.92894 69.8221 0.810637 73.0109 2.64949C76.3342 4.56591 77.5395 11.1213 75.7612 19.7532C74.4181 26.2795 71.2064 34.0359 66.8286 41.627C62.3401 49.41 57.2006 56.2671 52.1122 60.7148C45.6734 66.3433 39.4484 68.3802 36.1886 66.5002C33.0254 64.6774 31.8157 58.6991 33.3332 50.7071C34.6153 43.9545 37.8329 35.6661 42.4884 27.5911L42.4899 27.5912Z" stroke="#0F70B7" stroke-width="3.28929"/>
<path fill-rule="evenodd" clip-rule="evenodd" d="M42.5014 41.6474C37.8765 33.6597 34.7277 25.5728 33.4133 18.8616C31.8312 10.7754 32.9498 4.5929 36.1358 2.74871C39.4558 0.826664 45.7371 3.05625 52.3273 8.9079C57.31 13.332 62.4265 19.9869 66.817 27.5709C71.3184 35.3464 74.6921 43.2238 76.0046 49.8534C77.6653 58.2429 76.3212 64.653 73.0644 66.5383C69.9043 68.3677 64.1216 66.4309 57.9556 61.1247C52.7457 56.6417 47.1719 49.7146 42.5014 41.6473V41.6474Z" stroke="#0F70B7" stroke-width="3.28929"/>
</svg>
