<svg width="76" height="76" viewBox="0 0 76 76" fill="none" xmlns="http://www.w3.org/2000/svg">
<path fill-rule="evenodd" clip-rule="evenodd" d="M38 76C58.9868 76 76 58.9868 76 38C76 17.0132 58.9868 0 38 0C17.0132 0 0 17.0132 0 38C0 58.9868 17.0132 76 38 76ZM31.2461 46.369L39.8988 30H43.6254L35.5296 46.369H31.2461ZM29.3614 35.4795V33.0865L10.3427 38.0111L10 39.9532L28.676 45.5714V42.7276L15.0974 38.9822L29.3614 35.4795ZM45.7671 33.0865V35.4795L60.2882 38.9822L46.2383 42.7276V45.5714L65 40.196V38.0111L45.7671 33.0865Z" fill="#0F70B7"/>
</svg>
