<svg width="131" height="99" viewBox="0 0 131 99" fill="none" xmlns="http://www.w3.org/2000/svg">
<path d="M112.78 56.3906C108.199 56.4167 104.233 57.5167 100.905 59.1552C99.6764 56.7235 98.4476 54.6004 98.2436 53.0142C98.0135 51.1717 97.7311 50.0456 98.0135 47.8441C98.2959 45.6425 99.5753 42.5206 99.5753 42.2661C99.5492 42.036 99.2965 40.9099 96.6574 40.8838C94.0183 40.8576 91.7418 41.3963 91.4873 42.104C91.0307 43.382 90.6632 44.6902 90.3874 46.019C89.9272 48.4245 85.1162 56.9484 82.3777 61.4247C81.4818 59.6851 80.7148 58.1477 80.5614 56.9205C80.3313 55.078 80.0489 53.952 80.3313 51.7504C80.6137 49.5489 81.8931 46.4269 81.8931 46.1724C81.867 45.9423 81.6142 44.8163 78.9752 44.7901C76.3361 44.764 74.0596 45.3026 73.8051 46.0103C73.5506 46.718 73.2682 48.3391 72.7069 49.9254C72.17 51.4942 65.7728 65.7407 64.1081 69.4483C63.2644 71.3413 62.5393 72.8526 61.9815 73.8758C61.4237 74.8991 61.9553 73.9525 61.9048 74.0554L61.1901 75.4115V75.4377C60.831 76.0774 60.4475 76.6927 60.2662 76.6927C60.139 76.6927 59.8828 74.9775 60.3185 72.6243C61.265 67.686 63.5677 59.9832 63.5433 59.7008C63.5433 59.5735 63.9791 58.2191 62.0617 57.5254C60.193 56.8351 59.5289 57.9855 59.3773 57.9855C59.2256 57.9855 59.0984 58.3952 59.0984 58.3952C59.0984 58.3952 61.1727 49.7197 55.131 49.7197C51.3432 49.7197 46.1226 53.8404 43.5393 57.6021L30.4885 64.7419L30.2096 64.4351C22.8885 56.6294 9.35318 51.1002 9.91621 40.6101C10.1202 36.7979 11.4502 26.7401 35.9166 14.5592C55.9538 4.57982 71.9992 7.31652 74.7882 13.4087C78.7555 22.1069 66.2155 38.2831 45.3852 40.6119C37.454 41.5078 33.281 38.4365 32.2316 37.286C31.1335 36.0658 30.9766 36.0309 30.5687 36.2628C29.9028 36.6219 30.3125 37.6956 30.5687 38.3371C31.1823 39.9495 33.7412 42.8169 38.092 44.2463C41.9042 45.5013 51.2177 46.1916 62.4783 41.8408C75.0863 36.899 84.9384 23.355 82.0483 12.016C79.1024 0.474776 59.9629 -3.31128 41.8693 3.11212C31.0969 6.95221 19.4284 12.9381 11.0336 20.7926C1.05419 30.1078 -0.533796 38.2447 0.132076 41.6229C2.46088 53.6766 19.0693 61.5328 25.7211 67.3409L24.7972 67.8534C21.4714 69.4919 8.8041 76.1192 5.62988 83.1301C2.04776 91.0613 6.19291 96.77 8.95575 97.5369C17.5023 99.9163 26.2545 95.6439 30.9888 88.6052C35.6952 81.5682 35.1339 72.4325 32.9585 68.263L32.8818 68.1096L35.4913 66.5757C37.0788 65.6432 38.6827 64.7389 40.3023 63.8634C39.483 66.0893 38.8956 68.7267 38.5871 72.5615C38.228 77.0657 40.0687 82.8982 42.5021 85.2026C43.5776 86.2014 44.8553 86.2258 45.6502 86.2258C48.4653 86.2258 49.7465 83.897 51.1515 81.108C52.8911 77.7037 54.4285 73.7643 54.4285 73.7643C54.4285 73.7643 52.5111 84.4357 57.7544 84.4357C59.6718 84.4357 61.5928 81.9535 62.4608 80.674V80.7001C62.4608 80.7001 62.5131 80.6235 62.6142 80.4439C62.8182 80.1371 62.921 79.9558 62.921 79.9558V79.9035C63.688 78.5735 65.4032 75.5457 67.9621 70.4855C71.2636 63.9836 74.4361 55.8485 74.4361 55.8485C74.4361 55.8485 74.7429 57.8444 75.6911 61.1197C76.2541 63.065 77.483 65.1881 78.4278 67.2607L77.1989 68.9515L77.2251 68.9777C76.6115 69.7969 75.9177 70.6685 75.203 71.5366C72.5936 74.6568 69.4717 78.2162 69.062 79.2412C68.574 80.4613 68.6785 81.3399 69.6251 82.0563C70.3153 82.5688 71.5425 82.6699 72.8498 82.5688C75.203 82.4154 76.859 81.8262 77.6608 81.4706C79.138 80.9441 80.5335 80.2118 81.806 79.2952C84.3649 77.4022 85.9267 74.7143 85.7733 71.1322C85.6966 69.1624 85.0586 67.2171 84.2638 65.3746L84.9541 64.3514C88.9981 58.4422 92.1183 51.9404 92.1183 51.9404C92.1183 51.9404 92.4251 53.9363 93.3733 57.2116C93.8614 58.8745 94.8323 60.6926 95.7021 62.4828C91.9143 65.5786 89.535 69.1624 88.7157 71.5157C87.2062 75.8665 88.3845 77.8362 90.6087 78.3138C91.6075 78.5178 93.0404 78.0576 94.1124 77.5991C95.4424 77.1634 97.0548 76.4225 98.5399 75.3209C101.099 73.4279 103.555 70.7923 103.428 67.2328C103.351 65.5943 102.915 63.9836 102.329 62.4479C105.554 61.1179 109.726 60.3492 115.023 60.9889C126.411 62.3189 128.663 69.4344 128.227 72.4029C127.791 75.3714 125.412 77.01 124.619 77.5207C123.826 78.0088 123.569 78.1866 123.646 78.5439C123.751 79.0808 124.106 79.0564 124.797 78.9535C125.743 78.8002 130.784 76.5219 130.99 71.0468C131.297 64.0098 124.617 56.3348 112.769 56.4098L112.78 56.3906ZM24.9559 85.9975C21.1942 90.1182 15.8969 91.6801 13.643 90.3483C11.2113 88.9416 12.1614 82.8756 16.7911 78.5003C19.6062 75.8386 23.265 73.3825 25.6705 71.873L27.9993 70.4663C28.1527 70.3617 28.2556 70.3129 28.2556 70.3129C28.4351 70.2083 28.6391 70.0828 28.8448 69.9538C30.56 76.1977 28.9214 81.6746 24.9576 85.9992L24.9559 85.9975ZM52.4658 67.2903C51.1584 70.489 48.3973 78.7043 46.7344 78.2423C45.3016 77.8589 44.4335 71.6394 46.4555 65.5001C47.4787 62.4044 49.6541 58.702 50.9353 57.2848C53.0096 54.9839 55.2583 54.2134 55.823 55.1617C56.4889 56.3906 53.2903 65.2962 52.471 67.2938L52.4658 67.2903ZM75.1629 78.1413C74.5999 78.4201 74.0874 78.6293 73.8556 78.4724C73.6761 78.3679 74.0857 77.9844 74.0857 77.9844C74.0857 77.9844 76.927 74.9391 78.053 73.5324L80.279 70.6912V70.9979C80.279 74.6829 76.7474 77.139 75.1612 78.1378L75.1629 78.1413ZM92.6674 74.1321C92.2577 73.8253 92.3083 72.877 93.6906 69.9102C94.2275 68.7336 95.4564 66.7622 97.5777 64.8953C97.834 65.6623 97.9874 66.4048 97.9612 67.0968C97.9351 71.7039 94.6598 73.4174 92.6621 74.1338L92.6674 74.1321Z" fill="#0F70B7"/>
</svg>
