<svg width="76" height="76" viewBox="0 0 76 76" fill="none" xmlns="http://www.w3.org/2000/svg">
<path fill-rule="evenodd" clip-rule="evenodd" d="M38 76C58.9868 76 76 58.9868 76 38C76 17.0132 58.9868 0 38 0C17.0132 0 0 17.0132 0 38C0 58.9868 17.0132 76 38 76ZM26.616 20.04C27.556 20.1 28.046 20.154 28.646 21.64L28.65 21.616C28.845 22.087 29.1112 22.7331 29.4036 23.443C30.2661 25.5365 31.3572 28.185 31.526 28.536C31.752 29.006 31.978 29.666 31.658 30.266C31.3748 30.8682 31.1255 31.1551 30.7014 31.6429C30.6763 31.6718 30.6505 31.7015 30.624 31.732C30.4263 31.9599 30.2324 32.1646 30.0393 32.3685C29.7715 32.6514 29.5051 32.9326 29.232 33.272C29.2241 33.2813 29.2161 33.2907 29.2082 33.3C28.7824 33.8002 28.32 34.3433 28.856 35.266C29.402 36.186 31.282 39.254 34.046 41.714C37.323 44.6311 40.032 45.7266 41.2544 46.2209C41.3637 46.2651 41.4611 46.3045 41.546 46.34C42.316 46.66 43.238 46.58 43.802 45.98C44.4246 45.3103 45.1779 44.2514 45.9573 43.1559C46.0717 42.995 46.1868 42.8333 46.302 42.672C46.942 41.77 47.75 41.656 48.596 41.976C49.462 42.278 54.03 44.514 54.97 45.004C55.2107 45.1295 55.4302 45.2359 55.6275 45.3316C56.2009 45.6095 56.5864 45.7964 56.756 46.094C56.984 46.494 56.984 48.354 56.212 50.534C55.44 52.714 52.376 54.52 49.932 55.046C48.258 55.404 46.078 55.686 38.726 52.64C30.0929 49.0663 24.2826 40.7036 23.0261 38.8952C22.9142 38.7341 22.8384 38.6251 22.8 38.576C22.7881 38.5597 22.7742 38.5407 22.7584 38.5192C22.1727 37.7211 19 33.3976 19 28.93C19 24.4738 21.2 22.2364 22.1877 21.2319C22.2169 21.2022 22.245 21.1736 22.272 21.146C23.044 20.36 24.324 20 25.544 20L26.616 20.04Z" fill="#0F70B7"/>
</svg>
